# xmcd CD database file
#
# Track frame offsets:
#	150
#	8927
#	25050
#	37910
#	54589
#	68365
#	85295
#	90720
#	101987
#	113392
#	134032
#	159022
#	175072
#	198165
#
# Disc length: 2715 seconds
#
# Revision: 0
# Processed by: cddbd v1.5PL3 Copyright (c) Steve Scherf et al.
# Submitted via: NeoAudio 9.9.9
#
DISCID=a40a990e
DTITLE=Sarge Lintecum - Combat Tested Blues...For Peace
DYEAR=1997
DGENRE=Blues
TTITLE0=The Vietnam Blues
TTITLE1=This Shirt Of Mine
TTITLE2=Into The Fire From The Fryin' Pan
TTITLE3=Time Bomb In My Mind
TTITLE4=Oh Shit
TTITLE5=Sister Soldier
TTITLE6=Veterans Wife
TTITLE7=Blue Monsoon
TTITLE8=Combat Fatigue
TTITLE9=It Don't Mean Nothin'
TTITLE10=Five Down
TTITLE11=Saturday Morning Cartoons
TTITLE12=Reunion At The Wall
TTITLE13=Welcome Home
EXTD=YEAR: 1997
EXTT0=
EXTT1=
EXTT2=
EXTT3=
EXTT4=
EXTT5=
EXTT6=
EXTT7=
EXTT8=
EXTT9=
EXTT10=
EXTT11=
EXTT12=
EXTT13=
PLAYORDER=
